{"title":"Am I Evil (2007) DVDrip","uid":8316146,"size":1016051979,"categoryP":"video","categoryS":"movies","magnet":"?xt=urn:btih:96617030ca5a4029c0c575cd7157272c9649e2ec&amp;dn=Am+I+Evil+%282007%29+DVDrip&amp;tr=udp%3A%2F%2Ftracker.openbittorrent.com%3A80&amp;tr=udp%3A%2F%2Fopen.demonii.com%3A1337&amp;tr=udp%3A%2F%2Ftracker.coppersurfer.tk%3A6969&amp;tr=udp%3A%2F%2Fexodus.desync.com%3A6969","seeders":1,"leechers":0,"uploader":"RadioResearch","files":3,"time":1364590936,"description":"*******************************************************************************\n                            Am I Evil (2007) DVDrip\n*******************************************************************************\n\n-------------------------------------------------------------------------------\n                              General Information\n-------------------------------------------------------------------------------\nType.................: Movie\n\n\n\nVideo Format.........: AVI\nVideo Bitrate........: 1379\nResolution...........: 640 x 360\nColor................: 8\nFPS..................: 29.970\nSource...............: DVD 16x9\nOriginal Format......: NTSC\nGenre................: Horror\nIMDb Rating..........: 5.1\nMovie Information....: http://www.imdb.com/title/tt1141633/\n\n-------------------------------------------------------------------------------\n                               Post Information\n-------------------------------------------------------------------------------\nPosted by............: RadioResearch\nPosted on............: 3/29/2013\n\n-------------------------------------------------------------------------------\n                                 Release Notes\n-------------------------------------------------------------------------------\nSEEDBOX SUPPORTED!!\n\nAndrew Lakewood seems to be a normal average guy. He was raised by a loving \nfamily and has a close relationship with his older brother. His girlfriend \nadores him and his best friend could only think he knew everything about him. \nBut deep inside of Andrew is a dark side, that has been masked over the years. \nUntil one day, his thoughts and fantasies become real!\n\nUnfortunately, Dark Vision Films simply had to make their promo part of the film \nand the first few minutes is nothing more than a promo for them, a la Troma.  \nThe main film is in black and white, and it does work for this particular flick.\n\nEnjoy!\n\nRadioResearch\n\nGeneral\nComplete name                            : G:AVIaviAM_I_EVIL\nAM_I_EVIL.Title1.avi\nFormat                                   : AVI\nFormat/Info                              : Audio Video Interleave\nFile size                                : 969 MiB\nDuration                                 : 1h 38mn\nOverall bit rate                         : 1 379 Kbps\nMovie name                               : AM_I_EVIL.Title1.DVDRip\nWriting application                      : Lavf53.32.100\nOriginal source form/Name                : AM_I_EVIL\n\nVideo\nID                                       : 0\nFormat                                   : MPEG-4 Visual\nFormat profile                           : Advanced Simple@L5\nFormat settings, BVOP                    : 2\nFormat settings, QPel                    : No\nFormat settings, GMC                     : No warppoints\nFormat settings, Matrix                  : Default (H.263)\nMuxing mode                              : Packed bitstream\nCodec ID                                 : XVID\nCodec ID/Hint                            : XviD\nDuration                                 : 1h 38mn\nBit rate                                 : 1 239 Kbps\nWidth                                    : 640 pixels\nHeight                                   : 360 pixels\nDisplay aspect ratio                     : 16:9\nFrame rate                               : 29.970 fps\nColor space                              : YUV\nChroma subsampling                       : 4:2:0\nBit depth                                : 8 bits\nScan type                                : Progressive\nCompression mode                         : Lossy\nBits/(Pixel*Frame)                       : 0.179\nStream size                              : 871 MiB (90%)\nWriting library                          : XviD 64\n\nAudio\nID                                       : 1\nFormat                                   : AC-3\nFormat/Info                              : Audio Coding 3\nMode extension                           : CM (complete main)\nFormat settings, Endianness              : Big\nCodec ID                                 : 2000\nDuration                                 : 1h 38mn\nBit rate mode                            : Constant\nBit rate                                 : 128 Kbps\nChannel(s)                               : 2 channels\nChannel positions                        : Front: L R\nSampling rate                            : 48.0 KHz\nBit depth                                : 16 bits\nCompression mode                         : Lossy\nStream size                              : 89.9 MiB (9%)\nAlignment                                : Aligned on interleaves\nInterleave, duration                     : 32 ms (0.96 video frame)\n\n\n\n\n-------------------------------------------------------------------------------\nGenerated with Cool NFO Creator - http://fly.to/coolbeans\n-------------------------------------------------------------------------------\n","torrent":{"xt":"urn:btih:96617030ca5a4029c0c575cd7157272c9649e2ec","amp;dn":"Am+I+Evil+%282007%29+DVDrip","amp;tr":["udp%3A%2F%2Ftracker.openbittorrent.com%3A80","udp%3A%2F%2Fopen.demonii.com%3A1337","udp%3A%2F%2Ftracker.coppersurfer.tk%3A6969","udp%3A%2F%2Fexodus.desync.com%3A6969"],"infoHash":"96617030ca5a4029c0c575cd7157272c9649e2ec","infoHashBuffer":{"type":"Buffer","data":[150,97,112,48,202,90,64,41,192,197,117,205,113,87,39,44,150,73,226,236]},"announce":[],"urlList":[]}}